<mxfile host="app.diagrams.net" agent="Mozilla/5.0 (Windows NT 10.0; Win64; x64) AppleWebKit/537.36 (KHTML, like Gecko) Chrome/127.0.0.0 Safari/537.36 Edg/127.0.0.0" version="24.7.7">
  <diagram name="第 1 页" id="KBm009c4ZPsajmLe9cb4">
    <mxGraphModel dx="1002" dy="533" grid="1" gridSize="10" guides="1" tooltips="1" connect="1" arrows="1" fold="1" page="1" pageScale="1" pageWidth="827" pageHeight="1169" math="0" shadow="0">
      <root>
        <mxCell id="0" />
        <mxCell id="1" parent="0" />
        <mxCell id="CqBjvZcsGiFgYLhmqTcu-1" value="&lt;p style=&quot;text-align: center; margin: 4px 0px 0px;&quot;&gt;&lt;b&gt;HalconCamera.h&lt;/b&gt;&lt;/p&gt;&lt;hr style=&quot;border-style:solid;&quot; size=&quot;1&quot;&gt;&lt;p style=&quot;margin: 0px 0px 0px 4px;&quot;&gt;&lt;b&gt;Varible&lt;/b&gt;:&lt;/p&gt;&lt;p style=&quot;margin: 0px 0px 0px 4px;&quot;&gt;HImage himage;&amp;nbsp; &amp;nbsp; &amp;nbsp; &amp;nbsp; &amp;nbsp; &amp;nbsp; &amp;nbsp; &amp;nbsp; &amp;nbsp; // Grabbed image&lt;/p&gt;&lt;p style=&quot;margin: 0px 0px 0px 4px;&quot;&gt;HTuple hv_AcqHandle = NULL;&amp;nbsp; &amp;nbsp; &amp;nbsp;// Image Grabber handle&lt;/p&gt;&lt;p style=&quot;margin: 0px 0px 0px 4px;&quot;&gt;QMutex m;&amp;nbsp; &amp;nbsp; &amp;nbsp; &amp;nbsp; &amp;nbsp; &amp;nbsp; &amp;nbsp; &amp;nbsp; &amp;nbsp; &amp;nbsp; &amp;nbsp; &amp;nbsp;// Thread lock&lt;/p&gt;&lt;p style=&quot;margin: 0px 0px 0px 4px;&quot;&gt;&lt;span style=&quot;background-color: initial;&quot;&gt;static QVector&amp;lt;CameraInfoEthernet&amp;gt; cameraInfosetGigEVision2;&lt;/span&gt;&lt;br&gt;&lt;/p&gt;&lt;p style=&quot;margin: 0px 0px 0px 4px;&quot;&gt;HCameraParams params;&lt;/p&gt;&lt;p style=&quot;margin: 0px 0px 0px 4px;&quot;&gt;HTuple hv_Width, hv_Height;&lt;/p&gt;&lt;hr style=&quot;border-style:solid;&quot; size=&quot;1&quot;&gt;&lt;p style=&quot;margin:0px;margin-left:4px;&quot;&gt;&lt;b&gt;method()&lt;/b&gt;:&amp;nbsp;&lt;/p&gt;&lt;p style=&quot;margin:0px;margin-left:4px;&quot;&gt;bool connect();&lt;/p&gt;&lt;p style=&quot;margin:0px;margin-left:4px;&quot;&gt;&amp;nbsp; &amp;nbsp; void grab();&lt;/p&gt;&lt;p style=&quot;margin:0px;margin-left:4px;&quot;&gt;&amp;nbsp; &amp;nbsp; void close();&lt;/p&gt;&lt;p style=&quot;margin:0px;margin-left:4px;&quot;&gt;&amp;nbsp; &amp;nbsp; HImage getGribbedImage();&lt;/p&gt;&lt;p style=&quot;margin:0px;margin-left:4px;&quot;&gt;&amp;nbsp; &amp;nbsp; void setParams(HCameraParams _params);&lt;/p&gt;&lt;p style=&quot;margin:0px;margin-left:4px;&quot;&gt;&amp;nbsp; &amp;nbsp; HCameraParams getParams();&lt;/p&gt;&lt;p style=&quot;margin:0px;margin-left:4px;&quot;&gt;&amp;nbsp; &amp;nbsp; static void getCameraInfo();&amp;nbsp; &amp;nbsp; &amp;nbsp; &amp;nbsp; &amp;nbsp; &amp;nbsp; &amp;nbsp; &amp;nbsp; &amp;nbsp; &amp;nbsp; &amp;nbsp; &amp;nbsp; &amp;nbsp; &amp;nbsp; &amp;nbsp; &amp;nbsp; &amp;nbsp; &amp;nbsp; &amp;nbsp; &amp;nbsp; &amp;nbsp; &amp;nbsp; &amp;nbsp;&amp;nbsp;&lt;/p&gt;&lt;p style=&quot;margin:0px;margin-left:4px;&quot;&gt;&amp;nbsp; &amp;nbsp; static QVector&amp;lt;QString&amp;gt; getAvailableDevice(QString cameraInterface);&amp;nbsp; &amp;nbsp; &amp;nbsp; // Get info of all camera interfaces&amp;nbsp;&lt;/p&gt;&lt;p style=&quot;margin:0px;margin-left:4px;&quot;&gt;&amp;nbsp; &amp;nbsp; static QVector&amp;lt;QString&amp;gt; getAvailableCameraType(QString device, int port);&amp;nbsp; // Only used in USBCameraInterface interface&lt;/p&gt;" style="verticalAlign=top;align=left;overflow=fill;html=1;whiteSpace=wrap;movable=1;resizable=1;rotatable=1;deletable=1;editable=1;locked=0;connectable=1;points=[[0,0,0,0,0],[0,0.25,0,0,0],[0,0.5,0,0,0],[0,0.75,0,0,0],[0,1,0,0,0],[0.25,0,0,0,0],[0.25,1,0,0,0],[0.5,0,0,0,0],[0.5,1,0,0,0],[0.75,0,0,0,0],[0.75,1,0,0,0],[1,0,0,0,0],[1,0.25,0,0,0],[1,0.5,0,0,0],[1,0.75,0,0,0],[1,1,0,0,0]];" vertex="1" parent="1">
          <mxGeometry x="40" y="20" width="500" height="330" as="geometry" />
        </mxCell>
        <mxCell id="CqBjvZcsGiFgYLhmqTcu-22" value="&lt;p style=&quot;margin:0px;margin-top:4px;text-align:center;text-decoration:underline;&quot;&gt;&lt;span style=&quot;text-align: left;&quot;&gt;&lt;b&gt;Struct:&lt;/b&gt; HCameraParams&lt;/span&gt;&lt;br&gt;&lt;/p&gt;&lt;hr size=&quot;1&quot; style=&quot;border-style:solid;&quot;&gt;&lt;p style=&quot;margin:0px;margin-left:8px;&quot;&gt;&amp;nbsp; &amp;nbsp; int cameraIndex = 0;&lt;br&gt;&amp;nbsp; &amp;nbsp; QString cameraInterface = &quot;&quot;;&lt;br&gt;&amp;nbsp; &amp;nbsp; QString device = &quot;&quot;;&lt;br&gt;&amp;nbsp; &amp;nbsp; int port = -5;&lt;br&gt;&amp;nbsp; &amp;nbsp; QString cameraType = &quot;&quot;;&lt;br&gt;&amp;nbsp; &amp;nbsp; bool isConnected = false;&lt;br&gt;&lt;/p&gt;" style="verticalAlign=top;align=left;overflow=fill;html=1;whiteSpace=wrap;" vertex="1" parent="1">
          <mxGeometry x="560" y="20" width="240" height="120" as="geometry" />
        </mxCell>
        <mxCell id="CqBjvZcsGiFgYLhmqTcu-23" value="&lt;p style=&quot;margin: 4px 0px 0px; text-align: center;&quot;&gt;&lt;span style=&quot;text-decoration-line: underline; text-align: left;&quot;&gt;&lt;b&gt;Struct:&lt;/b&gt;&amp;nbsp;&lt;/span&gt;&lt;span style=&quot;background-color: initial; text-align: left;&quot;&gt;&lt;u&gt;CameraInfoEthernet&lt;/u&gt;&lt;/span&gt;&lt;br&gt;&lt;/p&gt;&lt;hr size=&quot;1&quot; style=&quot;border-style:solid;&quot;&gt;&lt;p style=&quot;margin:0px;margin-left:8px;&quot;&gt;&amp;nbsp; &amp;nbsp;&lt;span style=&quot;background-color: initial;&quot;&gt;&amp;nbsp;QString device;&lt;/span&gt;&lt;br&gt;&lt;/p&gt;&lt;p style=&quot;margin:0px;margin-left:8px;&quot;&gt;&amp;nbsp; &amp;nbsp; QString uniqueName;&lt;/p&gt;&lt;p style=&quot;margin:0px;margin-left:8px;&quot;&gt;&amp;nbsp; &amp;nbsp; QString interface_;&amp;nbsp; &amp;nbsp; &amp;nbsp; &amp;nbsp; &amp;nbsp;// &quot;_&quot; for avoiding conflict with &quot;interface&quot;&lt;/p&gt;&lt;p style=&quot;margin:0px;margin-left:8px;&quot;&gt;&amp;nbsp; &amp;nbsp; QString producer;&lt;/p&gt;&lt;p style=&quot;margin:0px;margin-left:8px;&quot;&gt;&amp;nbsp; &amp;nbsp; QString deviceIP;&lt;/p&gt;&lt;p style=&quot;margin:0px;margin-left:8px;&quot;&gt;&amp;nbsp; &amp;nbsp; QString interfaceIP;&lt;/p&gt;" style="verticalAlign=top;align=left;overflow=fill;html=1;whiteSpace=wrap;" vertex="1" parent="1">
          <mxGeometry x="560" y="200" width="260" height="140" as="geometry" />
        </mxCell>
      </root>
    </mxGraphModel>
  </diagram>
</mxfile>
